# xmcd
#
# Track frame offsets:
# 150
# 13290
# 30707
# 51940
# 60645
# 73665
# 88104
# 100967
# 115487
# 132777
# 147337
# 162232
# 177205
# 188095
# 198435
# 213055
# 226942
# 247607
# 270660
# 281155
# 294665
#
# Disc length: 4090 seconds
#
#
# Revision: 0
# Processed by: cddbd v1.4PL0 Copyright (c) Steve Scherf et al.
# Submitted via: FreeRIP 2.53 
#
DISCID=370ff815
DTITLE=Various Artist - The Bluesville Years
DYEAR=1900
DGENRE=Blues
TTITLE0=Fixin' to Die- Dave Van Ronk
TTITLE1=Come Back Baby -Dave Van Ronk
TTITLE2=Jesus Met the Woman at the Well- Dave Van Ronk
TTITLE3=Statesboro Blues -Dave Van Ronk
TTITLE4=Baby Please Don't Go -Tom Rush
TTITLE5=Alabama Bound -Tom Rush
TTITLE6=Nobody Knows You When You're Down -Danny Kalb
TTITLE7=Jelly Roll Baker- Geoff Muldar
TTITLE8=Trouble Soon Be Over- Geoff Muldar
TTITLE9=Motherless Chile Blues- Geoff Muldar
TTITLE10=Everybody Ought to Make a Change- Geoff Muldar
TTITLE11=Greiving Hearted Blues- Tracy Nelson
TTITLE12=Ramblin' Man- Tracy Nelson
TTITLE13=House of the Rising Sun- Tracy Nelson
TTITLE14=Long Old Road- Tracy Nelson
TTITLE15=Champagne Don't Hurt Me, Baby- Eric Von Schmidt
TTITLE16=Gulf Coast Blues- Eric Von Schmidt
TTITLE17=Light Rain- Eric Von Schmidt
TTITLE18=Just to See You Stand That Way- Eric Von Schmidt
TTITLE19=Ramblin' on My Mind- The New Strangers
TTITLE20=Keys on the Highway- The New Strangers
EXTD=Original sessions produced by Samuel Charters and Paul A. Rothchild\nSeries concept and coordination- Bill Belmont\nComplied and annotated by Samuel Charters\nRecorded betrween April 1962 and May 1963 and originally released on Prestige/Bluesville a
EXTD=lbums
EXTT0=
EXTT1=
EXTT2=
EXTT3=
EXTT4=
EXTT5=
EXTT6=
EXTT7=
EXTT8=
EXTT9=
EXTT10=
EXTT11=
EXTT12=
EXTT13=
EXTT14=
EXTT15=
EXTT16=
EXTT17=
EXTT18=
EXTT19=
EXTT20=
PLAYORDER=
